<svg xmlns="http://www.w3.org/2000/svg" xmlns:xlink="http://www.w3.org/1999/xlink" width="3780" zoomAndPan="magnify" viewBox="0 0 2835 1417.499962" height="1890" preserveAspectRatio="xMidYMid meet" version="1.0"><defs><g/><clipPath id="00733bc28e"><path d="M 0.00390625 921 L 2065.433594 921 L 2065.433594 1095 L 0.00390625 1095 Z M 0.00390625 921 " clip-rule="nonzero"/></clipPath><clipPath id="e1062a42e6"><path d="M 0.00390625 31 L 93 31 L 93 140 L 0.00390625 140 Z M 0.00390625 31 " clip-rule="nonzero"/></clipPath><clipPath id="55f68eeac6"><rect x="0" width="2066" y="0" height="174"/></clipPath><clipPath id="ce42bb2e95"><path d="M 456 1081 L 1606 1081 L 1606 1216.371094 L 456 1216.371094 Z M 456 1081 " clip-rule="nonzero"/></clipPath><clipPath id="1bfb30bae4"><rect x="0" width="1150" y="0" height="136"/></clipPath><clipPath id="d725422f5c"><path d="M 935.550781 772 L 1125.257812 772 L 1125.257812 871.164062 L 935.550781 871.164062 Z M 935.550781 772 " clip-rule="nonzero"/></clipPath><clipPath id="e3ea8f84d7"><path d="M 935.550781 674 L 1125.257812 674 L 1125.257812 773 L 935.550781 773 Z M 935.550781 674 " clip-rule="nonzero"/></clipPath><clipPath id="e0a412db0b"><path d="M 935.550781 576 L 1125.257812 576 L 1125.257812 675 L 935.550781 675 Z M 935.550781 576 " clip-rule="nonzero"/></clipPath><clipPath id="fcffc6c7b4"><path d="M 935.550781 478 L 1125.257812 478 L 1125.257812 577 L 935.550781 577 Z M 935.550781 478 " clip-rule="nonzero"/></clipPath><clipPath id="ad838e3e75"><path d="M 935.550781 380 L 1125.257812 380 L 1125.257812 479 L 935.550781 479 Z M 935.550781 380 " clip-rule="nonzero"/></clipPath><clipPath id="0f618711f1"><path d="M 935.550781 281.796875 L 1125.257812 281.796875 L 1125.257812 381 L 935.550781 381 Z M 935.550781 281.796875 " clip-rule="nonzero"/></clipPath><clipPath id="e1eebd4198"><rect x="0" width="1620" y="0" height="1140"/></clipPath><clipPath id="aee397bcf8"><rect x="0" width="2066" y="0" height="1217"/></clipPath></defs><g transform="matrix(1, 0, 0, 1, 387, 0)"><g clip-path="url(#aee397bcf8)"><g clip-path="url(#00733bc28e)"><g transform="matrix(1, 0, 0, 1, -0.000000000000113687, 921)"><g clip-path="url(#55f68eeac6)"><g clip-path="url(#e1062a42e6)"><g fill="#43ba3b" fill-opacity="1"><g transform="translate(0.00356064, 137.035022)"><g><path d="M 44.546875 2.21875 L 0.890625 -105.484375 L 25.234375 -105.484375 L 39.25 -70.375 L 46.921875 -48.53125 L 54.4375 -69.640625 L 68.609375 -105.484375 L 92.9375 -105.484375 L 49.28125 2.21875 Z M 44.546875 2.21875 "/></g></g></g></g><g fill="#43ba3b" fill-opacity="1"><g transform="translate(93.977654, 137.035022)"><g><path d="M 32.90625 0 L 11.796875 0 L 11.796875 -105.484375 L 32.90625 -105.484375 Z M 32.90625 0 "/></g></g></g><g fill="#43ba3b" fill-opacity="1"><g transform="translate(138.825591, 137.035022)"><g><path d="M 2.359375 0 L 46.765625 -109.328125 L 48.984375 -109.328125 L 93.390625 0 L 69.640625 0 L 65.359375 -11.359375 L 30.390625 -11.359375 L 26.265625 0 Z M 38.0625 -31.125 L 57.53125 -31.125 L 47.953125 -58.5625 Z M 38.0625 -31.125 "/></g></g></g><g fill="#43ba3b" fill-opacity="1"><g transform="translate(235.160081, 137.035022)"><g><path d="M 4.71875 0 L 4.71875 -21.09375 L 24.9375 -21.09375 C 27.976562 -21.09375 30.507812 -22.125 32.53125 -24.1875 C 34.550781 -26.257812 35.5625 -28.769531 35.5625 -31.71875 L 35.5625 -105.484375 L 56.953125 -105.484375 L 56.953125 -31.71875 C 56.953125 -21 54.316406 -13.03125 49.046875 -7.8125 C 43.785156 -2.601562 35.941406 0 25.515625 0 Z M 4.71875 0 "/></g></g></g><g fill="#43ba3b" fill-opacity="1"><g transform="translate(303.759669, 137.035022)"><g><path d="M 2.359375 0 L 46.765625 -109.328125 L 48.984375 -109.328125 L 93.390625 0 L 69.640625 0 L 65.359375 -11.359375 L 30.390625 -11.359375 L 26.265625 0 Z M 38.0625 -31.125 L 57.53125 -31.125 L 47.953125 -58.5625 Z M 38.0625 -31.125 "/></g></g></g><g fill="#43ba3b" fill-opacity="1"><g transform="translate(400.094159, 137.035022)"><g><path d="M 32.90625 -57.390625 L 32.90625 0 L 11.796875 0 L 11.796875 -107.703125 L 17.40625 -107.703125 L 70.671875 -45.734375 L 70.671875 -105.34375 L 91.90625 -105.34375 L 91.90625 2.21875 L 86.3125 2.21875 Z M 32.90625 -57.390625 "/></g></g></g><g fill="#43ba3b" fill-opacity="1"><g transform="translate(503.952493, 137.035022)"><g><path d="M 43.234375 -105.484375 C 51.984375 -105.484375 59.648438 -104.007812 66.234375 -101.0625 C 72.828125 -98.113281 78.3125 -94.128906 82.6875 -89.109375 C 87.0625 -84.085938 90.351562 -78.429688 92.5625 -72.140625 C 94.78125 -65.847656 95.890625 -59.378906 95.890625 -52.734375 C 95.890625 -46.097656 94.78125 -39.632812 92.5625 -33.34375 C 90.351562 -27.050781 87.0625 -21.394531 82.6875 -16.375 C 78.3125 -11.363281 72.828125 -7.378906 66.234375 -4.421875 C 59.648438 -1.472656 51.984375 0 43.234375 0 L 11.796875 0 L 11.796875 -105.484375 Z M 43.234375 -84.390625 L 32.90625 -84.390625 L 32.90625 -21.09375 L 43.234375 -21.09375 C 49.128906 -21.09375 54.164062 -22.222656 58.34375 -24.484375 C 62.53125 -26.753906 65.875 -29.78125 68.375 -33.5625 C 70.882812 -37.351562 72.554688 -41.507812 73.390625 -46.03125 C 74.234375 -50.550781 74.234375 -55.046875 73.390625 -59.515625 C 72.554688 -63.992188 70.882812 -68.125 68.375 -71.90625 C 65.875 -75.695312 62.53125 -78.722656 58.34375 -80.984375 C 54.164062 -83.253906 49.128906 -84.390625 43.234375 -84.390625 Z M 43.234375 -84.390625 "/></g></g></g><g fill="#43ba3b" fill-opacity="1"><g transform="translate(607.810828, 137.035022)"><g><path d="M 62.546875 1.46875 C 53.503906 1.46875 45.5625 -0.0507812 38.71875 -3.09375 C 31.882812 -6.144531 26.207031 -10.25 21.6875 -15.40625 C 17.164062 -20.570312 13.769531 -26.398438 11.5 -32.890625 C 9.238281 -39.390625 8.109375 -46.054688 8.109375 -52.890625 C 8.109375 -59.722656 9.238281 -66.382812 11.5 -72.875 C 13.769531 -79.375 17.164062 -85.203125 21.6875 -90.359375 C 26.207031 -95.523438 31.882812 -99.628906 38.71875 -102.671875 C 45.5625 -105.722656 53.503906 -107.25 62.546875 -107.25 C 71.597656 -107.25 79.539062 -105.722656 86.375 -102.671875 C 93.21875 -99.628906 98.898438 -95.523438 103.421875 -90.359375 C 107.941406 -85.203125 111.332031 -79.375 113.59375 -72.875 C 115.863281 -66.382812 117 -59.722656 117 -52.890625 C 117 -46.054688 115.863281 -39.390625 113.59375 -32.890625 C 111.332031 -26.398438 107.941406 -20.570312 103.421875 -15.40625 C 98.898438 -10.25 93.21875 -6.144531 86.375 -3.09375 C 79.539062 -0.0507812 71.597656 1.46875 62.546875 1.46875 Z M 62.546875 -20.359375 C 68.546875 -20.359375 73.707031 -21.535156 78.03125 -23.890625 C 82.363281 -26.253906 85.804688 -29.378906 88.359375 -33.265625 C 90.921875 -37.148438 92.644531 -41.40625 93.53125 -46.03125 C 94.414062 -50.65625 94.414062 -55.273438 93.53125 -59.890625 C 92.644531 -64.515625 90.921875 -68.769531 88.359375 -72.65625 C 85.804688 -76.539062 82.363281 -79.660156 78.03125 -82.015625 C 73.707031 -84.378906 68.546875 -85.5625 62.546875 -85.5625 C 56.546875 -85.5625 51.382812 -84.378906 47.0625 -82.015625 C 42.738281 -79.660156 39.296875 -76.539062 36.734375 -72.65625 C 34.179688 -68.769531 32.460938 -64.515625 31.578125 -59.890625 C 30.691406 -55.273438 30.691406 -50.65625 31.578125 -46.03125 C 32.460938 -41.40625 34.179688 -37.148438 36.734375 -33.265625 C 39.296875 -29.378906 42.738281 -26.253906 47.0625 -23.890625 C 51.382812 -21.535156 56.546875 -20.359375 62.546875 -20.359375 Z M 62.546875 -20.359375 "/></g></g></g><g fill="#43ba3b" fill-opacity="1"><g transform="translate(732.765367, 137.035022)"><g/></g></g><g fill="#43ba3b" fill-opacity="1"><g transform="translate(774.662728, 137.035022)"><g><path d="M 37.625 0 L 37.625 -47.5 L 0.890625 -105.484375 L 26.5625 -105.484375 L 48.09375 -69.1875 L 69.640625 -105.484375 L 95.453125 -105.484375 L 58.5625 -47.5 L 58.5625 0 Z M 37.625 0 "/></g></g></g><g fill="#43ba3b" fill-opacity="1"><g transform="translate(870.407116, 137.035022)"><g/></g></g><g fill="#43ba3b" fill-opacity="1"><g transform="translate(912.304477, 137.035022)"><g><path d="M 2.359375 0 L 46.765625 -109.328125 L 48.984375 -109.328125 L 93.390625 0 L 69.640625 0 L 65.359375 -11.359375 L 30.390625 -11.359375 L 26.265625 0 Z M 38.0625 -31.125 L 57.53125 -31.125 L 47.953125 -58.5625 Z M 38.0625 -31.125 "/></g></g></g><g fill="#43ba3b" fill-opacity="1"><g transform="translate(1008.638967, 137.035022)"><g><path d="M 78.921875 -81 C 76.960938 -82.082031 74.578125 -83.113281 71.765625 -84.09375 C 68.960938 -85.070312 65.253906 -85.5625 60.640625 -85.5625 C 54.640625 -85.5625 49.523438 -84.40625 45.296875 -82.09375 C 41.066406 -79.789062 37.671875 -76.71875 35.109375 -72.875 C 32.554688 -69.039062 30.835938 -64.835938 29.953125 -60.265625 C 29.066406 -55.691406 29.066406 -51.117188 29.953125 -46.546875 C 30.835938 -41.972656 32.554688 -37.765625 35.109375 -33.921875 C 37.671875 -30.085938 41.066406 -27.015625 45.296875 -24.703125 C 49.523438 -22.398438 54.640625 -21.25 60.640625 -21.25 C 65.253906 -21.25 69.304688 -21.785156 72.796875 -22.859375 C 76.296875 -23.941406 79.03125 -24.976562 81 -25.96875 L 83.796875 -4.125 C 80.546875 -2.851562 76.804688 -1.796875 72.578125 -0.953125 C 68.347656 -0.117188 64.367188 0.296875 60.640625 0.296875 C 51.679688 0.296875 43.859375 -1.203125 37.171875 -4.203125 C 30.484375 -7.203125 24.898438 -11.257812 20.421875 -16.375 C 15.953125 -21.488281 12.609375 -27.21875 10.390625 -33.5625 C 8.179688 -39.90625 7.078125 -46.46875 7.078125 -53.25 C 7.078125 -60.039062 8.179688 -66.609375 10.390625 -72.953125 C 12.609375 -79.296875 15.953125 -85.023438 20.421875 -90.140625 C 24.898438 -95.253906 30.484375 -99.3125 37.171875 -102.3125 C 43.859375 -105.3125 51.679688 -106.8125 60.640625 -106.8125 C 68.304688 -106.8125 75.238281 -105.4375 81.4375 -102.6875 Z M 78.921875 -81 "/></g></g></g><g fill="#43ba3b" fill-opacity="1"><g transform="translate(1097.449612, 137.035022)"><g><path d="M 62.546875 1.46875 C 53.503906 1.46875 45.5625 -0.0507812 38.71875 -3.09375 C 31.882812 -6.144531 26.207031 -10.25 21.6875 -15.40625 C 17.164062 -20.570312 13.769531 -26.398438 11.5 -32.890625 C 9.238281 -39.390625 8.109375 -46.054688 8.109375 -52.890625 C 8.109375 -59.722656 9.238281 -66.382812 11.5 -72.875 C 13.769531 -79.375 17.164062 -85.203125 21.6875 -90.359375 C 26.207031 -95.523438 31.882812 -99.628906 38.71875 -102.671875 C 45.5625 -105.722656 53.503906 -107.25 62.546875 -107.25 C 71.597656 -107.25 79.539062 -105.722656 86.375 -102.671875 C 93.21875 -99.628906 98.898438 -95.523438 103.421875 -90.359375 C 107.941406 -85.203125 111.332031 -79.375 113.59375 -72.875 C 115.863281 -66.382812 117 -59.722656 117 -52.890625 C 117 -46.054688 115.863281 -39.390625 113.59375 -32.890625 C 111.332031 -26.398438 107.941406 -20.570312 103.421875 -15.40625 C 98.898438 -10.25 93.21875 -6.144531 86.375 -3.09375 C 79.539062 -0.0507812 71.597656 1.46875 62.546875 1.46875 Z M 62.546875 -20.359375 C 68.546875 -20.359375 73.707031 -21.535156 78.03125 -23.890625 C 82.363281 -26.253906 85.804688 -29.378906 88.359375 -33.265625 C 90.921875 -37.148438 92.644531 -41.40625 93.53125 -46.03125 C 94.414062 -50.65625 94.414062 -55.273438 93.53125 -59.890625 C 92.644531 -64.515625 90.921875 -68.769531 88.359375 -72.65625 C 85.804688 -76.539062 82.363281 -79.660156 78.03125 -82.015625 C 73.707031 -84.378906 68.546875 -85.5625 62.546875 -85.5625 C 56.546875 -85.5625 51.382812 -84.378906 47.0625 -82.015625 C 42.738281 -79.660156 39.296875 -76.539062 36.734375 -72.65625 C 34.179688 -68.769531 32.460938 -64.515625 31.578125 -59.890625 C 30.691406 -55.273438 30.691406 -50.65625 31.578125 -46.03125 C 32.460938 -41.40625 34.179688 -37.148438 36.734375 -33.265625 C 39.296875 -29.378906 42.738281 -26.253906 47.0625 -23.890625 C 51.382812 -21.535156 56.546875 -20.359375 62.546875 -20.359375 Z M 62.546875 -20.359375 "/></g></g></g><g fill="#43ba3b" fill-opacity="1"><g transform="translate(1222.404151, 137.035022)"><g><path d="M 60.1875 -60.78125 L 101.796875 -107.109375 L 108.4375 -107.109375 L 108.4375 0 L 87.046875 0 L 87.1875 -58.859375 L 60.1875 -30.53125 L 33.1875 -58.859375 L 33.1875 0 L 11.796875 0 L 11.796875 -107.109375 L 18.59375 -107.109375 Z M 60.1875 -60.78125 "/></g></g></g><g fill="#43ba3b" fill-opacity="1"><g transform="translate(1342.785423, 137.035022)"><g><path d="M 32.90625 0 L 11.796875 0 L 11.796875 -105.34375 L 53.265625 -105.34375 C 59.160156 -105.34375 64.195312 -104.160156 68.375 -101.796875 C 72.5625 -99.429688 75.882812 -96.332031 78.34375 -92.5 C 80.800781 -88.664062 82.445312 -84.410156 83.28125 -79.734375 C 84.113281 -75.066406 84.113281 -70.421875 83.28125 -65.796875 C 82.445312 -61.171875 80.773438 -56.941406 78.265625 -53.109375 C 75.753906 -49.273438 72.410156 -46.175781 68.234375 -43.8125 C 64.054688 -41.457031 59.066406 -40.28125 53.265625 -40.28125 L 32.90625 -40.28125 Z M 32.90625 -60.78125 L 51.484375 -60.78125 C 54.335938 -60.78125 56.597656 -61.566406 58.265625 -63.140625 C 59.941406 -64.710938 61.070312 -66.675781 61.65625 -69.03125 C 62.25 -71.394531 62.25 -73.757812 61.65625 -76.125 C 61.070312 -78.488281 59.941406 -80.457031 58.265625 -82.03125 C 56.597656 -83.601562 54.335938 -84.390625 51.484375 -84.390625 L 32.90625 -84.390625 Z M 32.90625 -60.78125 "/></g></g></g><g fill="#43ba3b" fill-opacity="1"><g transform="translate(1431.743594, 137.035022)"><g><path d="M 2.359375 0 L 46.765625 -109.328125 L 48.984375 -109.328125 L 93.390625 0 L 69.640625 0 L 65.359375 -11.359375 L 30.390625 -11.359375 L 26.265625 0 Z M 38.0625 -31.125 L 57.53125 -31.125 L 47.953125 -58.5625 Z M 38.0625 -31.125 "/></g></g></g><g fill="#43ba3b" fill-opacity="1"><g transform="translate(1528.078005, 137.035022)"><g><path d="M 25.8125 -120.09375 C 27.195312 -124.8125 29.3125 -128.617188 32.15625 -131.515625 C 35.007812 -134.421875 38.503906 -135.773438 42.640625 -135.578125 C 44.992188 -135.484375 47.175781 -134.914062 49.1875 -133.875 C 51.207031 -132.84375 53.050781 -131.882812 54.71875 -131 C 56.394531 -130.125 57.972656 -129.832031 59.453125 -130.125 C 60.929688 -130.414062 62.3125 -131.84375 63.59375 -134.40625 L 76.28125 -128.640625 C 75 -123.828125 72.878906 -120.039062 69.921875 -117.28125 C 66.972656 -114.53125 63.4375 -113.203125 59.3125 -113.296875 C 56.945312 -113.398438 54.78125 -113.96875 52.8125 -115 C 50.84375 -116.03125 49.019531 -116.988281 47.34375 -117.875 C 45.675781 -118.757812 44.101562 -119.050781 42.625 -118.75 C 41.15625 -118.457031 39.832031 -117.035156 38.65625 -114.484375 Z M 32.90625 0 L 11.796875 0 L 11.796875 -107.703125 L 17.40625 -107.703125 L 70.671875 -45.734375 L 70.671875 -105.34375 L 91.90625 -105.34375 L 91.90625 2.21875 L 86.3125 2.21875 L 32.90625 -57.390625 Z M 32.90625 0 "/></g></g></g><g fill="#43ba3b" fill-opacity="1"><g transform="translate(1631.936418, 137.035022)"><g><path d="M 2.359375 0 L 46.765625 -109.328125 L 48.984375 -109.328125 L 93.390625 0 L 69.640625 0 L 65.359375 -11.359375 L 30.390625 -11.359375 L 26.265625 0 Z M 38.0625 -31.125 L 57.53125 -31.125 L 47.953125 -58.5625 Z M 38.0625 -31.125 "/></g></g></g><g fill="#43ba3b" fill-opacity="1"><g transform="translate(1728.270829, 137.035022)"><g><path d="M 32.90625 -57.390625 L 32.90625 0 L 11.796875 0 L 11.796875 -107.703125 L 17.40625 -107.703125 L 70.671875 -45.734375 L 70.671875 -105.34375 L 91.90625 -105.34375 L 91.90625 2.21875 L 86.3125 2.21875 Z M 32.90625 -57.390625 "/></g></g></g><g fill="#43ba3b" fill-opacity="1"><g transform="translate(1832.129242, 137.035022)"><g><path d="M 43.234375 -105.484375 C 51.984375 -105.484375 59.648438 -104.007812 66.234375 -101.0625 C 72.828125 -98.113281 78.3125 -94.128906 82.6875 -89.109375 C 87.0625 -84.085938 90.351562 -78.429688 92.5625 -72.140625 C 94.78125 -65.847656 95.890625 -59.378906 95.890625 -52.734375 C 95.890625 -46.097656 94.78125 -39.632812 92.5625 -33.34375 C 90.351562 -27.050781 87.0625 -21.394531 82.6875 -16.375 C 78.3125 -11.363281 72.828125 -7.378906 66.234375 -4.421875 C 59.648438 -1.472656 51.984375 0 43.234375 0 L 11.796875 0 L 11.796875 -105.484375 Z M 43.234375 -84.390625 L 32.90625 -84.390625 L 32.90625 -21.09375 L 43.234375 -21.09375 C 49.128906 -21.09375 54.164062 -22.222656 58.34375 -24.484375 C 62.53125 -26.753906 65.875 -29.78125 68.375 -33.5625 C 70.882812 -37.351562 72.554688 -41.507812 73.390625 -46.03125 C 74.234375 -50.550781 74.234375 -55.046875 73.390625 -59.515625 C 72.554688 -63.992188 70.882812 -68.125 68.375 -71.90625 C 65.875 -75.695312 62.53125 -78.722656 58.34375 -80.984375 C 54.164062 -83.253906 49.128906 -84.390625 43.234375 -84.390625 Z M 43.234375 -84.390625 "/></g></g></g><g fill="#43ba3b" fill-opacity="1"><g transform="translate(1935.987656, 137.035022)"><g><path d="M 62.546875 1.46875 C 53.503906 1.46875 45.5625 -0.0507812 38.71875 -3.09375 C 31.882812 -6.144531 26.207031 -10.25 21.6875 -15.40625 C 17.164062 -20.570312 13.769531 -26.398438 11.5 -32.890625 C 9.238281 -39.390625 8.109375 -46.054688 8.109375 -52.890625 C 8.109375 -59.722656 9.238281 -66.382812 11.5 -72.875 C 13.769531 -79.375 17.164062 -85.203125 21.6875 -90.359375 C 26.207031 -95.523438 31.882812 -99.628906 38.71875 -102.671875 C 45.5625 -105.722656 53.503906 -107.25 62.546875 -107.25 C 71.597656 -107.25 79.539062 -105.722656 86.375 -102.671875 C 93.21875 -99.628906 98.898438 -95.523438 103.421875 -90.359375 C 107.941406 -85.203125 111.332031 -79.375 113.59375 -72.875 C 115.863281 -66.382812 117 -59.722656 117 -52.890625 C 117 -46.054688 115.863281 -39.390625 113.59375 -32.890625 C 111.332031 -26.398438 107.941406 -20.570312 103.421875 -15.40625 C 98.898438 -10.25 93.21875 -6.144531 86.375 -3.09375 C 79.539062 -0.0507812 71.597656 1.46875 62.546875 1.46875 Z M 62.546875 -20.359375 C 68.546875 -20.359375 73.707031 -21.535156 78.03125 -23.890625 C 82.363281 -26.253906 85.804688 -29.378906 88.359375 -33.265625 C 90.921875 -37.148438 92.644531 -41.40625 93.53125 -46.03125 C 94.414062 -50.65625 94.414062 -55.273438 93.53125 -59.890625 C 92.644531 -64.515625 90.921875 -68.769531 88.359375 -72.65625 C 85.804688 -76.539062 82.363281 -79.660156 78.03125 -82.015625 C 73.707031 -84.378906 68.546875 -85.5625 62.546875 -85.5625 C 56.546875 -85.5625 51.382812 -84.378906 47.0625 -82.015625 C 42.738281 -79.660156 39.296875 -76.539062 36.734375 -72.65625 C 34.179688 -68.769531 32.460938 -64.515625 31.578125 -59.890625 C 30.691406 -55.273438 30.691406 -50.65625 31.578125 -46.03125 C 32.460938 -41.40625 34.179688 -37.148438 36.734375 -33.265625 C 39.296875 -29.378906 42.738281 -26.253906 47.0625 -23.890625 C 51.382812 -21.535156 56.546875 -20.359375 62.546875 -20.359375 Z M 62.546875 -20.359375 "/></g></g></g></g></g></g><g clip-path="url(#ce42bb2e95)"><g transform="matrix(1, 0, 0, 1, 456, 1081)"><g clip-path="url(#1bfb30bae4)"><g fill="#43ba3b" fill-opacity="1"><g transform="translate(0.80499, 97.627463)"><g><path d="M 8.375 -73.296875 L 39.265625 -73.296875 C 43.453125 -73.296875 47.222656 -72.6875 50.578125 -71.46875 C 53.929688 -70.25 56.789062 -68.554688 59.15625 -66.390625 C 61.53125 -64.222656 63.347656 -61.671875 64.609375 -58.734375 C 65.867188 -55.804688 66.5 -52.632812 66.5 -49.21875 C 66.5 -45.800781 65.867188 -42.625 64.609375 -39.6875 C 63.347656 -36.757812 61.53125 -34.210938 59.15625 -32.046875 C 56.789062 -29.878906 53.929688 -28.179688 50.578125 -26.953125 C 47.222656 -25.734375 43.453125 -25.125 39.265625 -25.125 L 17.796875 -25.125 L 17.796875 0 L 8.375 0 Z M 39.265625 -34.03125 C 45.066406 -34.03125 49.484375 -35.441406 52.515625 -38.265625 C 55.554688 -41.097656 57.078125 -44.75 57.078125 -49.21875 C 57.078125 -53.6875 55.554688 -57.332031 52.515625 -60.15625 C 49.484375 -62.988281 45.066406 -64.40625 39.265625 -64.40625 L 17.796875 -64.40625 L 17.796875 -34.03125 Z M 39.265625 -34.03125 "/></g></g></g><g fill="#43ba3b" fill-opacity="1"><g transform="translate(70.944421, 97.627463)"><g><path d="M 42.9375 2.09375 C 37.414062 2.09375 32.316406 1.132812 27.640625 -0.78125 C 22.960938 -2.707031 18.929688 -5.394531 15.546875 -8.84375 C 12.160156 -12.300781 9.507812 -16.382812 7.59375 -21.09375 C 5.675781 -25.8125 4.71875 -31 4.71875 -36.65625 C 4.71875 -42.3125 5.675781 -47.492188 7.59375 -52.203125 C 9.507812 -56.910156 12.160156 -60.992188 15.546875 -64.453125 C 18.929688 -67.910156 22.960938 -70.597656 27.640625 -72.515625 C 32.316406 -74.429688 37.414062 -75.390625 42.9375 -75.390625 C 48.445312 -75.390625 53.523438 -74.429688 58.171875 -72.515625 C 62.816406 -70.597656 66.847656 -67.910156 70.265625 -64.453125 C 73.679688 -60.992188 76.347656 -56.910156 78.265625 -52.203125 C 80.191406 -47.492188 81.15625 -42.3125 81.15625 -36.65625 C 81.15625 -31 80.191406 -25.8125 78.265625 -21.09375 C 76.347656 -16.382812 73.679688 -12.300781 70.265625 -8.84375 C 66.847656 -5.394531 62.816406 -2.707031 58.171875 -0.78125 C 53.523438 1.132812 48.445312 2.09375 42.9375 2.09375 Z M 42.9375 -6.8125 C 47.125 -6.8125 50.976562 -7.523438 54.5 -8.953125 C 58.03125 -10.378906 61.066406 -12.398438 63.609375 -15.015625 C 66.160156 -17.640625 68.148438 -20.785156 69.578125 -24.453125 C 71.015625 -28.117188 71.734375 -32.1875 71.734375 -36.65625 C 71.734375 -41.125 71.015625 -45.1875 69.578125 -48.84375 C 68.148438 -52.507812 66.160156 -55.648438 63.609375 -58.265625 C 61.066406 -60.890625 58.03125 -62.914062 54.5 -64.34375 C 50.976562 -65.78125 47.125 -66.5 42.9375 -66.5 C 38.75 -66.5 34.890625 -65.78125 31.359375 -64.34375 C 27.835938 -62.914062 24.800781 -60.890625 22.25 -58.265625 C 19.707031 -55.648438 17.71875 -52.507812 16.28125 -48.84375 C 14.851562 -45.1875 14.140625 -41.125 14.140625 -36.65625 C 14.140625 -32.1875 14.851562 -28.117188 16.28125 -24.453125 C 17.71875 -20.785156 19.707031 -17.640625 22.25 -15.015625 C 24.800781 -12.398438 27.835938 -10.378906 31.359375 -8.953125 C 34.890625 -7.523438 38.75 -6.8125 42.9375 -6.8125 Z M 42.9375 -6.8125 "/></g></g></g><g fill="#43ba3b" fill-opacity="1"><g transform="translate(156.786716, 97.627463)"><g><path d="M 8.375 -73.296875 L 39.796875 -73.296875 C 43.984375 -73.296875 47.734375 -72.703125 51.046875 -71.515625 C 54.367188 -70.335938 57.160156 -68.71875 59.421875 -66.65625 C 61.691406 -64.59375 63.4375 -62.164062 64.65625 -59.375 C 65.882812 -56.582031 66.5 -53.546875 66.5 -50.265625 C 66.5 -44.816406 64.820312 -40.117188 61.46875 -36.171875 C 58.113281 -32.234375 53.332031 -29.601562 47.125 -28.28125 L 65.96875 0 L 54.984375 0 L 37.171875 -27.234375 L 17.796875 -27.234375 L 17.796875 0 L 8.375 0 Z M 39.796875 -36.125 C 45.585938 -36.125 49.914062 -37.429688 52.78125 -40.046875 C 55.644531 -42.671875 57.078125 -46.078125 57.078125 -50.265625 C 57.078125 -54.453125 55.644531 -57.851562 52.78125 -60.46875 C 49.914062 -63.09375 45.585938 -64.40625 39.796875 -64.40625 L 17.796875 -64.40625 L 17.796875 -36.125 Z M 39.796875 -36.125 "/></g></g></g><g fill="#43ba3b" fill-opacity="1"><g transform="translate(228.496417, 97.627463)"><g/></g></g><g fill="#43ba3b" fill-opacity="1"><g transform="translate(257.808405, 97.627463)"><g><path d="M 38.21875 1.78125 C 33.40625 1.21875 28.9375 -0.125 24.8125 -2.25 C 20.695312 -4.382812 17.15625 -7.125 14.1875 -10.46875 C 11.21875 -13.820312 8.894531 -17.710938 7.21875 -22.140625 C 5.550781 -26.578125 4.71875 -31.414062 4.71875 -36.65625 C 4.71875 -42.3125 5.675781 -47.492188 7.59375 -52.203125 C 9.507812 -56.910156 12.160156 -60.992188 15.546875 -64.453125 C 18.929688 -67.910156 22.960938 -70.597656 27.640625 -72.515625 C 32.316406 -74.429688 37.414062 -75.390625 42.9375 -75.390625 C 48.445312 -75.390625 53.523438 -74.429688 58.171875 -72.515625 C 62.816406 -70.597656 66.847656 -67.910156 70.265625 -64.453125 C 73.679688 -60.992188 76.347656 -56.910156 78.265625 -52.203125 C 80.191406 -47.492188 81.15625 -42.3125 81.15625 -36.65625 C 81.15625 -31.414062 80.316406 -26.578125 78.640625 -22.140625 C 76.960938 -17.710938 74.640625 -13.820312 71.671875 -10.46875 C 68.710938 -7.125 65.171875 -4.382812 61.046875 -2.25 C 56.929688 -0.125 52.460938 1.21875 47.640625 1.78125 L 47.640625 20.9375 L 38.21875 20.9375 Z M 42.9375 -6.8125 C 47.125 -6.8125 50.976562 -7.523438 54.5 -8.953125 C 58.03125 -10.378906 61.066406 -12.398438 63.609375 -15.015625 C 66.160156 -17.640625 68.148438 -20.785156 69.578125 -24.453125 C 71.015625 -28.117188 71.734375 -32.1875 71.734375 -36.65625 C 71.734375 -41.125 71.015625 -45.1875 69.578125 -48.84375 C 68.148438 -52.507812 66.160156 -55.648438 63.609375 -58.265625 C 61.066406 -60.890625 58.03125 -62.914062 54.5 -64.34375 C 50.976562 -65.78125 47.125 -66.5 42.9375 -66.5 C 38.75 -66.5 34.890625 -65.78125 31.359375 -64.34375 C 27.835938 -62.914062 24.800781 -60.890625 22.25 -58.265625 C 19.707031 -55.648438 17.71875 -52.507812 16.28125 -48.84375 C 14.851562 -45.1875 14.140625 -41.125 14.140625 -36.65625 C 14.140625 -32.1875 14.851562 -28.117188 16.28125 -24.453125 C 17.71875 -20.785156 19.707031 -17.640625 22.25 -15.015625 C 24.800781 -12.398438 27.835938 -10.378906 31.359375 -8.953125 C 34.890625 -7.523438 38.75 -6.8125 42.9375 -6.8125 Z M 42.9375 -6.8125 "/></g></g></g><g fill="#43ba3b" fill-opacity="1"><g transform="translate(343.6507, 97.627463)"><g><path d="M 36.65625 2.09375 C 32.320312 2.09375 28.390625 1.394531 24.859375 0 C 21.335938 -1.394531 18.320312 -3.382812 15.8125 -5.96875 C 13.300781 -8.550781 11.347656 -11.675781 9.953125 -15.34375 C 8.554688 -19.007812 7.859375 -23.144531 7.859375 -27.75 L 7.859375 -73.296875 L 17.28125 -73.296875 L 17.28125 -27.75 C 17.28125 -24.46875 17.75 -21.535156 18.6875 -18.953125 C 19.632812 -16.367188 20.960938 -14.171875 22.671875 -12.359375 C 24.378906 -10.546875 26.421875 -9.164062 28.796875 -8.21875 C 31.171875 -7.28125 33.789062 -6.8125 36.65625 -6.8125 C 39.507812 -6.8125 42.125 -7.28125 44.5 -8.21875 C 46.875 -9.164062 48.914062 -10.546875 50.625 -12.359375 C 52.34375 -14.171875 53.671875 -16.367188 54.609375 -18.953125 C 55.554688 -21.535156 56.03125 -24.46875 56.03125 -27.75 L 56.03125 -73.296875 L 65.453125 -73.296875 L 65.453125 -27.75 C 65.453125 -23.144531 64.753906 -19.007812 63.359375 -15.34375 C 61.960938 -11.675781 60.003906 -8.550781 57.484375 -5.96875 C 54.972656 -3.382812 51.953125 -1.394531 48.421875 0 C 44.898438 1.394531 40.976562 2.09375 36.65625 2.09375 Z M 36.65625 2.09375 "/></g></g></g><g fill="#43ba3b" fill-opacity="1"><g transform="translate(416.930705, 97.627463)"><g><path d="M 8.375 -73.296875 L 17.796875 -73.296875 L 17.796875 0 L 8.375 0 Z M 8.375 -73.296875 "/></g></g></g><g fill="#43ba3b" fill-opacity="1"><g transform="translate(443.102121, 97.627463)"><g><path d="M 8.375 -73.296875 L 59.6875 -73.296875 L 59.6875 -64.40625 L 17.796875 -64.40625 L 17.796875 -41.359375 L 51.828125 -41.359375 L 51.828125 -32.46875 L 17.796875 -32.46875 L 17.796875 -8.90625 L 59.6875 -8.90625 L 59.6875 0 L 8.375 0 Z M 8.375 -73.296875 "/></g></g></g><g fill="#43ba3b" fill-opacity="1"><g transform="translate(506.960407, 97.627463)"><g><path d="M 8.375 -73.296875 L 21.984375 -73.296875 L 58.015625 -11.515625 L 58.21875 -11.515625 L 58.125 -12.5625 L 58.125 -73.296875 L 67.546875 -73.296875 L 67.546875 0 L 53.9375 0 L 17.90625 -61.78125 L 17.703125 -61.78125 L 17.796875 -60.734375 L 17.796875 -0.109375 L 8.375 0 Z M 8.375 -73.296875 "/></g></g></g><g fill="#43ba3b" fill-opacity="1"><g transform="translate(582.85755, 97.627463)"><g><path d="M 8.375 -73.296875 L 59.6875 -73.296875 L 59.6875 -64.40625 L 17.796875 -64.40625 L 17.796875 -41.359375 L 51.828125 -41.359375 L 51.828125 -32.46875 L 17.796875 -32.46875 L 17.796875 -8.90625 L 59.6875 -8.90625 L 59.6875 0 L 8.375 0 Z M 8.375 -73.296875 "/></g></g></g><g fill="#43ba3b" fill-opacity="1"><g transform="translate(646.715872, 97.627463)"><g><path d="M 34.5625 2.09375 C 31.207031 2.09375 28.203125 1.757812 25.546875 1.09375 C 22.898438 0.4375 20.5625 -0.429688 18.53125 -1.515625 C 16.507812 -2.597656 14.726562 -3.816406 13.1875 -5.171875 C 11.65625 -6.535156 10.363281 -7.953125 9.3125 -9.421875 C 6.800781 -12.773438 5.09375 -16.613281 4.1875 -20.9375 L 13.609375 -20.9375 C 14.304688 -18.289062 15.566406 -15.921875 17.390625 -13.828125 C 18.921875 -12.003906 21.046875 -10.378906 23.765625 -8.953125 C 26.492188 -7.523438 30.09375 -6.8125 34.5625 -6.8125 C 37.695312 -6.8125 40.414062 -7.140625 42.71875 -7.796875 C 45.03125 -8.460938 46.9375 -9.367188 48.4375 -10.515625 C 49.9375 -11.671875 51.050781 -13.015625 51.78125 -14.546875 C 52.519531 -16.085938 52.890625 -17.695312 52.890625 -19.375 C 52.890625 -21.601562 52.242188 -23.453125 50.953125 -24.921875 C 49.660156 -26.390625 47.929688 -27.644531 45.765625 -28.6875 C 43.597656 -29.738281 41.148438 -30.644531 38.421875 -31.40625 C 35.703125 -32.175781 32.925781 -32.960938 30.09375 -33.765625 C 27.269531 -34.566406 24.5 -35.492188 21.78125 -36.546875 C 19.0625 -37.597656 16.617188 -38.890625 14.453125 -40.421875 C 12.285156 -41.953125 10.554688 -43.851562 9.265625 -46.125 C 7.972656 -48.394531 7.328125 -51.171875 7.328125 -54.453125 C 7.328125 -57.171875 7.9375 -59.804688 9.15625 -62.359375 C 10.382812 -64.910156 12.113281 -67.144531 14.34375 -69.0625 C 16.582031 -70.976562 19.320312 -72.507812 22.5625 -73.65625 C 25.8125 -74.8125 29.460938 -75.390625 33.515625 -75.390625 C 36.585938 -75.390625 39.359375 -75.09375 41.828125 -74.5 C 44.304688 -73.914062 46.488281 -73.148438 48.375 -72.203125 C 50.257812 -71.265625 51.914062 -70.164062 53.34375 -68.90625 C 54.78125 -67.644531 55.988281 -66.390625 56.96875 -65.140625 C 59.269531 -62.128906 60.875 -58.742188 61.78125 -54.984375 L 52.359375 -54.984375 C 51.734375 -57.078125 50.617188 -58.992188 49.015625 -60.734375 C 47.609375 -62.128906 45.679688 -63.4375 43.234375 -64.65625 C 40.796875 -65.882812 37.554688 -66.5 33.515625 -66.5 C 30.785156 -66.5 28.375 -66.164062 26.28125 -65.5 C 24.1875 -64.832031 22.421875 -63.941406 20.984375 -62.828125 C 19.554688 -61.710938 18.492188 -60.421875 17.796875 -58.953125 C 17.097656 -57.484375 16.75 -55.984375 16.75 -54.453125 C 16.75 -51.585938 17.863281 -49.332031 20.09375 -47.6875 C 22.332031 -46.050781 25.144531 -44.65625 28.53125 -43.5 C 31.914062 -42.351562 35.582031 -41.273438 39.53125 -40.265625 C 43.476562 -39.253906 47.144531 -37.925781 50.53125 -36.28125 C 53.914062 -34.644531 56.722656 -32.5 58.953125 -29.84375 C 61.191406 -27.1875 62.3125 -23.695312 62.3125 -19.375 C 62.3125 -16.507812 61.695312 -13.765625 60.46875 -11.140625 C 59.25 -8.523438 57.453125 -6.238281 55.078125 -4.28125 C 52.703125 -2.332031 49.804688 -0.785156 46.390625 0.359375 C 42.972656 1.515625 39.03125 2.09375 34.5625 2.09375 Z M 34.5625 2.09375 "/></g></g></g><g fill="#43ba3b" fill-opacity="1"><g transform="translate(713.714663, 97.627463)"><g/></g></g><g fill="#43ba3b" fill-opacity="1"><g transform="translate(743.026719, 97.627463)"><g><path d="M 42.9375 2.09375 C 37.414062 2.09375 32.316406 1.132812 27.640625 -0.78125 C 22.960938 -2.707031 18.929688 -5.394531 15.546875 -8.84375 C 12.160156 -12.300781 9.507812 -16.382812 7.59375 -21.09375 C 5.675781 -25.8125 4.71875 -31 4.71875 -36.65625 C 4.71875 -42.3125 5.675781 -47.492188 7.59375 -52.203125 C 9.507812 -56.910156 12.160156 -60.992188 15.546875 -64.453125 C 18.929688 -67.910156 22.960938 -70.597656 27.640625 -72.515625 C 32.316406 -74.429688 37.414062 -75.390625 42.9375 -75.390625 C 46.632812 -75.390625 49.984375 -75.003906 52.984375 -74.234375 C 55.984375 -73.472656 58.6875 -72.460938 61.09375 -71.203125 C 63.507812 -69.953125 65.625 -68.519531 67.4375 -66.90625 C 69.25 -65.300781 70.820312 -63.664062 72.15625 -62 C 75.289062 -58.082031 77.59375 -53.644531 79.0625 -48.6875 L 69.640625 -48.6875 C 68.304688 -51.96875 66.457031 -54.9375 64.09375 -57.59375 C 63.039062 -58.707031 61.847656 -59.785156 60.515625 -60.828125 C 59.191406 -61.878906 57.65625 -62.820312 55.90625 -63.65625 C 54.164062 -64.5 52.210938 -65.179688 50.046875 -65.703125 C 47.890625 -66.234375 45.519531 -66.5 42.9375 -66.5 C 38.75 -66.5 34.890625 -65.78125 31.359375 -64.34375 C 27.835938 -62.914062 24.800781 -60.890625 22.25 -58.265625 C 19.707031 -55.648438 17.71875 -52.507812 16.28125 -48.84375 C 14.851562 -45.1875 14.140625 -41.125 14.140625 -36.65625 C 14.140625 -32.1875 14.851562 -28.117188 16.28125 -24.453125 C 17.71875 -20.785156 19.707031 -17.640625 22.25 -15.015625 C 24.800781 -12.398438 27.835938 -10.378906 31.359375 -8.953125 C 34.890625 -7.523438 38.75 -6.8125 42.9375 -6.8125 C 45.582031 -6.8125 48.019531 -7.085938 50.25 -7.640625 C 52.488281 -8.203125 54.5 -8.9375 56.28125 -9.84375 C 58.0625 -10.75 59.632812 -11.773438 61 -12.921875 C 62.363281 -14.078125 63.566406 -15.25 64.609375 -16.4375 C 66.984375 -19.226562 68.832031 -22.472656 70.15625 -26.171875 L 79.59375 -26.171875 C 77.914062 -20.867188 75.46875 -16.160156 72.25 -12.046875 C 70.851562 -10.222656 69.226562 -8.472656 67.375 -6.796875 C 65.53125 -5.128906 63.40625 -3.628906 61 -2.296875 C 58.59375 -0.972656 55.882812 0.0859375 52.875 0.890625 C 49.875 1.691406 46.5625 2.09375 42.9375 2.09375 Z M 42.9375 2.09375 "/></g></g></g><g fill="#43ba3b" fill-opacity="1"><g transform="translate(826.775275, 97.627463)"><g><path d="M 36.65625 2.09375 C 32.320312 2.09375 28.390625 1.394531 24.859375 0 C 21.335938 -1.394531 18.320312 -3.382812 15.8125 -5.96875 C 13.300781 -8.550781 11.347656 -11.675781 9.953125 -15.34375 C 8.554688 -19.007812 7.859375 -23.144531 7.859375 -27.75 L 7.859375 -73.296875 L 17.28125 -73.296875 L 17.28125 -27.75 C 17.28125 -24.46875 17.75 -21.535156 18.6875 -18.953125 C 19.632812 -16.367188 20.960938 -14.171875 22.671875 -12.359375 C 24.378906 -10.546875 26.421875 -9.164062 28.796875 -8.21875 C 31.171875 -7.28125 33.789062 -6.8125 36.65625 -6.8125 C 39.507812 -6.8125 42.125 -7.28125 44.5 -8.21875 C 46.875 -9.164062 48.914062 -10.546875 50.625 -12.359375 C 52.34375 -14.171875 53.671875 -16.367188 54.609375 -18.953125 C 55.554688 -21.535156 56.03125 -24.46875 56.03125 -27.75 L 56.03125 -73.296875 L 65.453125 -73.296875 L 65.453125 -27.75 C 65.453125 -23.144531 64.753906 -19.007812 63.359375 -15.34375 C 61.960938 -11.675781 60.003906 -8.550781 57.484375 -5.96875 C 54.972656 -3.382812 51.953125 -1.394531 48.421875 0 C 44.898438 1.394531 40.976562 2.09375 36.65625 2.09375 Z M 36.65625 2.09375 "/></g></g></g><g fill="#43ba3b" fill-opacity="1"><g transform="translate(900.055281, 97.627463)"><g><path d="M 8.375 -73.296875 L 17.796875 -73.296875 L 17.796875 0 L 8.375 0 Z M 8.375 -73.296875 "/></g></g></g><g fill="#43ba3b" fill-opacity="1"><g transform="translate(926.22673, 97.627463)"><g><path d="M 8.375 -73.296875 L 32.46875 -73.296875 C 37.976562 -73.296875 43.070312 -72.351562 47.75 -70.46875 C 52.425781 -68.582031 56.472656 -66 59.890625 -62.71875 C 63.316406 -59.445312 65.972656 -55.578125 67.859375 -51.109375 C 69.742188 -46.640625 70.6875 -41.820312 70.6875 -36.65625 C 70.6875 -31.488281 69.742188 -26.671875 67.859375 -22.203125 C 65.972656 -17.734375 63.316406 -13.859375 59.890625 -10.578125 C 56.472656 -7.296875 52.425781 -4.710938 47.75 -2.828125 C 43.070312 -0.941406 37.976562 0 32.46875 0 L 8.375 0 Z M 32.46875 -8.90625 C 36.789062 -8.90625 40.710938 -9.582031 44.234375 -10.9375 C 47.765625 -12.300781 50.785156 -14.222656 53.296875 -16.703125 C 55.816406 -19.179688 57.773438 -22.113281 59.171875 -25.5 C 60.566406 -28.882812 61.265625 -32.601562 61.265625 -36.65625 C 61.265625 -40.695312 60.566406 -44.410156 59.171875 -47.796875 C 57.773438 -51.191406 55.816406 -54.125 53.296875 -56.59375 C 50.785156 -59.070312 47.765625 -60.992188 44.234375 -62.359375 C 40.710938 -63.722656 36.789062 -64.40625 32.46875 -64.40625 L 17.796875 -64.40625 L 17.796875 -8.90625 Z M 32.46875 -8.90625 "/></g></g></g><g fill="#43ba3b" fill-opacity="1"><g transform="translate(1001.600405, 97.627463)"><g><path d="M 20.9375 -73.296875 L 49.734375 -73.296875 L 68.59375 0 L 59.171875 0 L 53.40625 -21.46875 L 17.28125 -21.46875 L 11.515625 0 L 2.09375 0 Z M 51.3125 -30.375 L 42.40625 -64.40625 L 28.28125 -64.40625 L 19.375 -30.375 Z M 51.3125 -30.375 "/></g></g></g><g fill="#43ba3b" fill-opacity="1"><g transform="translate(1072.263305, 97.627463)"><g><path d="M 8.375 -73.296875 L 21.984375 -73.296875 L 58.015625 -11.515625 L 58.21875 -11.515625 L 58.125 -12.5625 L 58.125 -73.296875 L 67.546875 -73.296875 L 67.546875 0 L 53.9375 0 L 17.90625 -61.78125 L 17.703125 -61.78125 L 17.796875 -60.734375 L 17.796875 -0.109375 L 8.375 0 Z M 8.375 -73.296875 "/></g></g></g></g></g></g><g clip-path="url(#d725422f5c)"><path fill="#980098" d="M 580.085938 772.929688 L 1464.179688 772.929688 L 1464.179688 871.160156 L 580.085938 871.160156 Z M 580.085938 772.929688 " fill-opacity="1" fill-rule="nonzero"/></g><g clip-path="url(#e3ea8f84d7)"><path fill="#0000ff" d="M 580.085938 674.699219 L 1464.179688 674.699219 L 1464.179688 772.925781 L 580.085938 772.925781 Z M 580.085938 674.699219 " fill-opacity="1" fill-rule="nonzero"/></g><g clip-path="url(#e0a412db0b)"><path fill="#009800" d="M 580.085938 576.480469 L 1464.179688 576.480469 L 1464.179688 674.707031 L 580.085938 674.707031 Z M 580.085938 576.480469 " fill-opacity="1" fill-rule="nonzero"/></g><g clip-path="url(#fcffc6c7b4)"><path fill="#ffff00" d="M 580.085938 478.25 L 1464.179688 478.25 L 1464.179688 576.476562 L 580.085938 576.476562 Z M 580.085938 478.25 " fill-opacity="1" fill-rule="nonzero"/></g><g clip-path="url(#ad838e3e75)"><path fill="#ff9800" d="M 580.085938 380.023438 L 1464.179688 380.023438 L 1464.179688 478.25 L 580.085938 478.25 Z M 580.085938 380.023438 " fill-opacity="1" fill-rule="nonzero"/></g><g clip-path="url(#0f618711f1)"><path fill="#ff0000" d="M 580.085938 281.796875 L 1464.179688 281.796875 L 1464.179688 380.023438 L 580.085938 380.023438 Z M 580.085938 281.796875 " fill-opacity="1" fill-rule="nonzero"/></g><g transform="matrix(1, 0, 0, 1, 220, 0)"><g clip-path="url(#e1eebd4198)"><g fill="#43ba3b" fill-opacity="1"><g transform="translate(3.293718, 872.661955)"><g><path d="M 393.109375 0 L 223.046875 0 L 14.53125 -587.953125 L 216.203125 -587.953125 L 334.140625 -194.84375 Z M 469.15625 -76.90625 L 649.484375 -587.953125 L 456.34375 -587.953125 L 385.421875 -353.796875 Z M 469.15625 -76.90625 "/></g></g></g><g fill="#43ba3b" fill-opacity="1"><g transform="translate(668.148426, 872.661955)"><g/></g></g><g fill="#43ba3b" fill-opacity="1"><g transform="translate(952.719918, 872.661955)"><g><path d="M 376.015625 -587.953125 L 201.6875 0 L 8.546875 0 L 223.046875 -587.953125 Z M 460.625 -538.390625 L 657.171875 0 L 457.203125 0 L 432.421875 -82.890625 L 325.59375 -82.890625 L 364.90625 -214.5 L 393.109375 -214.5 L 379.4375 -262.359375 Z M 460.625 -538.390625 "/></g></g></g></g></g></g></g></svg>